# xmcd
#
# Track frame offsets: 
#        150
#        20515
#        42067
#        61217
#
# Disc length: 1100 seconds
#
# Revision: 0
# Processed by: cddbd v1.5.2PL0 Copyright (c) Steve Scherf et al.
# Submitted via: ExactAudioCopy v0.95b4
#
DISCID=28044a04
DTITLE=Cilla Black - Through the Years
DYEAR=1993
DGENRE=pop
TTITLE0=Through the Years
TTITLE1=Through the Years (Orchestral Version)
TTITLE2=The Feelings Just Get Stronger (Through the Years)
TTITLE3=Through the Years (Do you remember?)
EXTD=
EXTT0=
EXTT1=
EXTT2=
EXTT3=
PLAYORDER=
